HIERARCHY
ROOT Hips
{
    OFFSET 11.229570388793945 90.88026809692383 -18.126285552978516
    CHANNELS 6 Xposition Yposition Zposition Zrotation Xrotation Yrotation
    JOINT RightUpLeg
    {
        OFFSET -11.229570388793945 0.0 0.0
        CHANNELS 3 Zrotation Xrotation Yrotation
        JOINT RightLeg
        {
            OFFSET 0.0 -45.56455612182617 0.0
            CHANNELS 3 Zrotation Xrotation Yrotation
            JOINT RightFoot
            {
                OFFSET 0.0 -45.315711975097656 0.0
                CHANNELS 3 Zrotation Xrotation Yrotation
                End Site
                {
                    OFFSET 0.0 0.0 18.126285552978516
                }
            }
        }
    }
    JOINT LeftUpLeg
    {
        OFFSET 11.229570388793945 0.0 0.0
        CHANNELS 3 Zrotation Xrotation Yrotation
        JOINT LeftLeg
        {
            OFFSET 0.0 -45.56455612182617 0.0
            CHANNELS 3 Zrotation Xrotation Yrotation
            JOINT LeftFoot
            {
                OFFSET 0.0 -45.315711975097656 0.0
                CHANNELS 3 Zrotation Xrotation Yrotation
                End Site
                {
                    OFFSET 0.0 0.0 18.126285552978516
                }
            }
        }
    }
    JOINT Spine
    {
        OFFSET 0.0 23.719268798828125 0.0
        CHANNELS 3 Zrotation Xrotation Yrotation
        JOINT Spine3
        {
            OFFSET 0.0 25.02843475341797 0.0
            CHANNELS 3 Zrotation Xrotation Yrotation
            JOINT Neck
            {
                OFFSET 0.0 11.536794662475586 0.0
                CHANNELS 3 Zrotation Xrotation Yrotation
                End Site
                {
                    OFFSET 0.0 4.614717960357666 0.0
                }
            }
            JOINT LeftArm
            {
                OFFSET 12.65528678894043 0.0 0.0
                CHANNELS 3 Zrotation Xrotation Yrotation
                JOINT LeftForeArm
                {
                    OFFSET 22.73990821838379 0.0 0.0
                    CHANNELS 3 Zrotation Xrotation Yrotation
                    JOINT LeftHand
                    {
                        OFFSET 17.184242248535156 0.0 0.0
                        CHANNELS 3 Zrotation Xrotation Yrotation
                        End Site
                        {
                            OFFSET 6.873696327209473 0.0 0.0
                        }
                    }
                }
            }
            JOINT RightArm
            {
                OFFSET -12.65528678894043 0.0 0.0
                CHANNELS 3 Zrotation Xrotation Yrotation
                JOINT RightForeArm
                {
                    OFFSET -22.73990821838379 0.0 0.0
                    CHANNELS 3 Zrotation Xrotation Yrotation
                    JOINT RightHand
                    {
                        OFFSET -17.184242248535156 0.0 0.0
                        CHANNELS 3 Zrotation Xrotation Yrotation
                        End Site
                        {
                            OFFSET -6.873696327209473 0.0 0.0
                        }
                    }
                }
            }
        }
    }
}
MOTION
Frames: 7
Frame Time: 0.03333333333333333
-8.484757563564926e-05 90.75723266601562 -0.0013564906548708677 -1.7336673547649366 -6.909044767199999 -21.804726552499066 -2.6846402574428785 17.64357865707459 -0.4197583642047791 0.013831797501277882 10.696026542478016 -0.24695161777050878 -3.9756933518293955e-16 1.8966003624434274e-33 -5.466578358765419e-16 0.04907960391770942 14.186352503672884 -1.019460413323164 -1.7766255834071754 10.257797654127101 -0.40143439794644853 0.0 0.0 6.460501696722769e-16 -5.05139567103292 19.61901911917523 0.3238559961833165 -2.1410777612052867e-07 2.161749617010239e-07 0.30177988163155467 7.121040794194969 5.342929684171714 179.9567247165673 113.10716933194905 -22.489876443147782 -179.0043976789772 8.009426794048705e-07 3.1165208724750865e-07 25.751012935488948 -1.5902773407317588e-15 6.3611093629270335e-15 6.3611093629270335e-15 -116.51975768465725 -34.663496918763066 172.99682735766882 -2.673742878430446e-06 -9.566494004249426e-07 -76.57730522306748 0.0 0.0 0.0
-2.5036933948285878e-05 90.75723266601562 -0.001326852012425661 -1.692938145236323 -6.771667391035005 -21.824382906032444 -2.785791077269767 17.59701592512283 -0.47179758205706046 -0.3056265873374344 11.283216377299945 -0.2306384489905414 3.9756933518293955e-16 -5.172546443027529e-33 -1.4908850069360234e-15 0.23649738056194478 13.832697150046604 -1.1061867087456538 -1.5352097165852117 10.454480298933408 -0.5360358019715682 3.975693351829396e-16 -9.939233379573492e-17 -4.3235665201144685e-15 -4.901033335931015 19.493412410735544 0.1792757628124551 4.200393599730481e-08 -4.6774915573451504e-07 0.6883864628828295 7.3686015281629045 5.298847171977124 179.6166025040655 113.11739413952647 -22.40589012490915 -179.09115095698613 4.6977276259106236e-07 -5.913277284842318e-08 25.624094687249155 -6.3611093629270335e-15 3.531125038440127e-31 -6.3611093629270335e-15 -116.31393067679319 -35.68668419250808 173.10644516202825 1.9452202993899034e-07 -3.415941345487798e-06 -74.7716555566419 0.0 0.0 0.0
1.7685033526504412e-05 90.75720977783203 -0.0012865286553278565 -1.5613127014342951 -6.715296134832338 -21.25665148570332 -3.119516214616667 17.581449557952578 -0.425863099305577 -0.3054234057786138 11.764048815342196 -0.21104029321992723 -1.987846675914698e-16 -1.2069275033730902e-33 6.957463365701443e-16 0.4267932909389958 13.53364535691806 -1.170540078817958 -1.2073809746941633 10.75313568753307 -0.6815207319826707 7.951386703658792e-16 -2.9655932940024505e-32 -4.273870353216601e-15 -4.326147949554447 19.27268095129035 -0.07278010925819826 4.0317736347601076e-07 2.6247463150834276e-07 0.8275679731390687 6.918189707355009 5.274694689025237 178.89069808916744 113.13976627297804 -22.137956025145574 -179.0027987889844 1.4376781912748745e-06 2.971197374494024e-06 25.235015861954327 1.5902773407317584e-15 0.0 0.0 -116.21437908150577 -36.9266495992767 173.13575472281192 1.2784705165339942e-06 1.0282419680313056e-06 -71.68406028912713 -7.95138670365879e-15 0.0 0.0
3.534842107910663e-05 90.75721740722656 -0.0012831336352974176 -1.2387509567544503 -6.551252362274357 -20.44048983822759 -3.3818913574770813 17.307765151942597 -0.4168677786085455 -0.16496004051191715 12.483635297581174 -0.2527748617150438 -1.987846675914698e-16 6.034637516865451e-33 -3.4787316828507214e-15 0.27061345042087614 13.061825454837166 -1.1527260110768482 -1.3742025226453247 10.814945923608196 -0.67370603934678 3.975693351829396e-16 -3.1805546814635168e-15 -7.951386703658792e-16 -3.679318641353532 19.239714522303984 -0.36950988150022324 -8.800850540965477e-08 -4.979964178355619e-07 1.219912566195909 6.367356902110956 5.424719760608875 178.46640207876334 112.69615008432953 -22.418687411334183 -178.73733112588204 1.7157472067416316e-06 1.0264771510861998e-06 25.087026847676444 1.5902773407317584e-15 6.361109362927033e-15 -3.1805546814635164e-15 -115.60968595254482 -37.79340260785478 172.94278232157532 -2.41604718804521e-06 -1.0851056694968404e-06 -67.97425967668751 3.1805546814635168e-15 -6.3611093629270335e-15 1.7655625192200634e-31
3.632176230894402e-05 90.75723266601562 -0.0012798012467101216 -1.1662437865291868 -6.479109065699797 -20.027441174307462 -3.5614248352809947 17.190386286937528 -0.38848840158898545 -0.06922717275220691 13.301249951513798 -0.27212376696296886 -7.95138670365879e-16 -4.969616689786743e-17 -7.95138670365879e-16 -0.007993474672435412 12.968080665552925 -1.102482233018733 -1.3153852488537552 10.711472108409293 -0.6448840079032769 3.975693351829395e-16 3.1805546814635164e-15 1.4908850069360234e-15 -2.8673345076224117 19.2827008196345 -0.6692320226174192 2.2356556389478386e-07 3.327436435511426e-07 1.3230923343916225 5.914564484886809 5.332111963976809 178.64220110847282 112.14120177863686 -23.020481828084066 -178.5492806923317 -3.3765478481046235e-07 5.645381810601061e-07 24.290486663153697 0.0 3.1805546814635168e-15 0.0 -115.04947079425574 -37.921104300959854 173.05642089059282 2.936982200675594e-06 1.5263806277069128e-06 -62.573074955281385 2.3854160110976376e-15 -1.3241718894150476e-31 -6.3611093629270335e-15
2.3228858481161296e-05 90.75724792480469 -0.0012791937915608287 -1.0432528485543353 -6.386660668270455 -19.827393031180176 -3.6015687444770403 16.909750496763408 -0.4214503302363555 -0.31495554703070056 13.840069778750596 -0.2553308345766731 1.9878466759146975e-16 3.1805546814635164e-15 3.9756933518293955e-16 -0.40703853633285725 12.97793216087931 -1.0525044821506875 -1.8747326428449134 10.337162301175493 -0.48254362123285893 -1.987846675914698e-16 -6.293264839016827e-33 3.6278201835443235e-15 -2.1638894619848354 19.170512650541284 -0.9542492904343949 2.631211327713805e-09 -5.128108393907279e-08 1.6874178294295454 5.2655211921026215 5.163652806484211 178.25048842679703 111.31487249902796 -24.028642676184038 -178.69363644784715 -3.8009347131648164e-06 -3.788451033482229e-06 23.90603340664231 -1.5902773407317584e-15 3.1805546814635168e-15 4.4139062980501586e-32 -114.44318640146845 -37.26621527725845 173.32727062626128 1.89761586469432e-06 2.6625613734537874e-06 -56.856906937650024 7.951386703658792e-15 0.0 0.0
-1.4165379980113357e-06 90.7572250366211 -0.0012592984130606055 -1.0447871692604451 -6.405380345397168 -19.691222826567643 -3.6351292055909585 16.898812648876955 -0.4419849908666569 -0.2847552815048542 13.986189579758998 -0.2816535410031928 -3.9756933518293955e-16 1.2069275033730902e-33 -3.478731682850721e-16 -0.8300842886858025 13.158989204718145 -0.9936898897429813 -2.3156008816877214 9.99019856561494 -0.33538002248455007 -9.939233379573487e-17 -3.1805546814635168e-15 6.957463365701443e-16 -1.4046646618346639 19.24387401262571 -1.2432094106830422 9.298002666359321e-08 -1.1796842910228241e-06 2.0022078419707445 4.8713557061905 5.035142552327149 177.6668606139617 110.75479174520984 -25.907242697283273 -178.54200129771104 5.7956158066573425e-06 -8.389915842558667e-07 23.71471819742224 -6.3611093629270335e-15 0.0 0.0 -114.91897809421862 -37.426833763434836 173.00875785768696 -2.5083118510812233e-06 4.531737425631893e-07 -51.26779820021306 -2.7829853462805768e-15 3.1805546814635164e-15 7.724336021587778e-32
